<?xml version="1.0" encoding="UTF-8" standalone="no"?>
<!-- Created with Inkscape (http://www.inkscape.org/) -->

<svg
   xmlns:dc="http://purl.org/dc/elements/1.1/"
   xmlns:cc="http://creativecommons.org/ns#"
   xmlns:rdf="http://www.w3.org/1999/02/22-rdf-syntax-ns#"
   xmlns:svg="http://www.w3.org/2000/svg"
   xmlns="http://www.w3.org/2000/svg"
   xmlns:sodipodi="http://sodipodi.sourceforge.net/DTD/sodipodi-0.dtd"
   xmlns:inkscape="http://www.inkscape.org/namespaces/inkscape"
   id="svg3390"
   xml:space="preserve"
   height="744.09"
   viewBox="0 0 1052.3625 744.09497"
   width="1052.4"
   version="1.1"
   inkscape:version="0.91 r13725"
   sodipodi:docname="isobar_white_portrait.svg"><sodipodi:namedview
     pagecolor="#ffffff"
     bordercolor="#666666"
     borderopacity="1"
     objecttolerance="10"
     gridtolerance="10"
     guidetolerance="10"
     inkscape:pageopacity="0"
     inkscape:pageshadow="2"
     inkscape:window-width="1920"
     inkscape:window-height="1058"
     id="namedview25"
     showgrid="false"
     inkscape:zoom="0.63"
     inkscape:cx="526.20001"
     inkscape:cy="521.76492"
     inkscape:window-x="-8"
     inkscape:window-y="-8"
     inkscape:window-maximized="1"
     inkscape:current-layer="g3404" /><metadata
     id="metadata3396"><rdf:RDF><cc:Work
         rdf:about=""><dc:format>image/svg+xml</dc:format><dc:type
           rdf:resource="http://purl.org/dc/dcmitype/StillImage" /><dc:title></dc:title></cc:Work></rdf:RDF></metadata><defs
     id="defs3394"><clipPath
       id="clipPath3406"
       clipPathUnits="userSpaceOnUse"><path
         id="path3408"
         d="m0 1190.6h841.89v-1190.6h-841.89v1190.6z" /></clipPath></defs><g
     id="g3398"
     transform="matrix(1.25 0 0 -1.25 -.43991 1069.4)"
     style="fill:none"><g
       id="g4191"
       style="fill:none"><path
         id="path3400"
         d="m0.35193 260.21h841.89v595.28h-841.89v-595.28z"
         fill="#fff"
         style="fill:none" /></g><g
       id="g3404"
       transform="translate(.19229 -73.931)"
       clip-path="url(#clipPath3406)"
       style="fill:none"><g
         id="g3410"
         transform="translate(-42.138 671.1)"
         style="fill:none"><path
           id="path3412"
           d="m0 0c37.137-7.682 72.471-33.947 78.98-53.176 3.303-9.756 2.783-7.683 8.597-27.583 11.072-37.896 35.607-75.279 44.254-87.486s14.342-31.259 22.481-41.715 0.831-27.065-2.643-32.037c-4.821-6.901 4.578-22.38 9.156-26.958s7.604-14.292 9.466-20.396c1.863-6.104 8.819-19.102 10.513-31.536 1.904-13.973 31.557-16.406 39.534-14.191 2.572 0.714 21.873 5.99 15.769 18.819s-11.191 22.551-11.191 28.993 6.67 13.224 13.226 12.207 11.699-1.968 15.768-2.034c7.793-0.128 23.907 7.12 32.046 4.577s27.361-8.119 34.547-6.195c6.722 1.798 15.95 14.101 18.354 21.963 2.96 9.681 9.774 23.688 13.195 20.491s2.065-23.034 7.66-20.491 16.137 23.444 20.855 40.691c6.777 24.771 11.7 50.355 6.104 50.355-5.595 0-11.64-14.414-14.242-23.397-2.326-8.027-14.751-24.415-13.225-3.052 1.525 21.363 16.745 59.26 24.488 70.337s46.838 51.996 82.549 60.76c118.01 28.963 92.146 109.19 137.91 150.54 71.061 64.218-33.845 196.18 161.68 204.02"
           stroke="#000"
           stroke-width=".5"
           fill="#fff"
           style="fill:none;stroke:#000000;stroke-opacity:0.3137255" /></g><g
         id="g3414"
         transform="translate(-42.138 703.74)"
         style="fill:none"><path
           id="path3416"
           d="m0 0c10.682-1.017 23.49-15.682 55.313-27.141 40.582-14.613 27.615-24.566 38.805-43.218s17.33-10.667 26.484-19.036c8.796-8.042 30.558-2.121 31.575-16.872 1.017-14.752-9.665-46.121-1.526-64.774 8.138-18.65 30.01-57.197 34.079-63.923 4.07-6.726 12.328-26.656 14.751-30.465 4.368-6.865 16.786-7.574 24.924-9.721 8.139-2.148 46.74-5.087 53.635-6.613s22.154-5.087 37.414 9.156c15.259 14.243 29.754 58.829 36.367 80.703 6.612 21.873 9.953 32.418 11.122 62.124 0.973 24.725 34.055 59.381 60.741 69.098 29.655 10.797 45.761 25.391 56.555 41.386 10.795 15.996 45.636 34.754 56.193 46.095 26.073 28.009 26.246 76.693 2.49 111.15-16.123 23.387-18.851 45.55-13.076 66.254 12.163 43.603 62.767 39.927 93.678 84.125 41.988 60.036 71.298 4.888 146.3 1.73"
           stroke="#000"
           stroke-width=".5"
           fill="#fff"
           style="fill:none;stroke:#000000;stroke-opacity:0.3137255" /></g><g
         id="g3418"
         transform="translate(-42.138 729.08)"
         style="fill:none"><path
           id="path3420"
           d="m0 0c10.569-3.561 66.68-1.469 78.917-3.969 11.707-2.391 35.535-20.68 35.777-40.665 0.159-13.161 3.9-56.58 25.771-43.806 21.872 12.774 24.416 31.088 34.589 38.21s27.467 24.079 45.27 20.348c17.802-3.73 19.837-28.487 18.311-45.784-1.526-17.296 5.595-26.566 17.294-21.365 11.699 5.2 17.464 6.217 30.519-0.509s35.605 1.413 43.744 3.561c8.138 2.148 48.399 2.552 55.951 14.752 18.056 29.168 41.376 27.076 50.965 38.191 7.866 9.117 14.677 38.391 38.558 48.29 12.999 5.389 47.656 49.717 23.472 64.952-36.233 22.825-47.093 51.197-50.261 73.284-3.396 23.677 6.353 59.297 51.034 84.156 59.934 33.344 75.189 79.112 106.93 92.711 46.379 19.873 157.25-18.636 158.99-16.901"
           stroke="#000"
           stroke-width=".5"
           fill="#fff"
           style="fill:none;stroke:#000000;stroke-opacity:0.3137255" /></g><g
         id="g3422"
         transform="translate(172.59 502.06)"
         style="fill:none"><path
           id="path3424"
           d="m0 0c-10.086 12.407-11.073 16.693-16.622 24.883-5.548 8.189-4.07 19.673-2.714 27.814 1.357 8.141 13.23 32.418 15.265 37.07 2.036 4.652 11.195 17.541 16.792 16.863s11.267-6.736 11.267-12.89-2.12-32.204 11.931-32.204c21.371 0 52.088-6.724 54.943-11.213 2.129-3.344 5.319-18.513 1.745-22.702-2.606-3.054-18.996-7.148-13.738-14.61 5.257-7.463 13.811-16.476 11.993-30.189-1.817-13.713-10.612-11.533-26.749-10.854-16.138 0.678-36.636-5.767-64.113 28.032z"
           stroke="#000"
           stroke-width=".5"
           fill="#fff"
           style="fill:none;stroke:#000000;stroke-opacity:0.3137255" /></g><g
         id="g3426"
         transform="translate(-42.138 763.67)"
         style="fill:none"><path
           id="path3428"
           d="m0 0c19.789-12.994 88.341-6.989 106.22-17.046 17.88-10.057 28.334-13.358 31.367-18.959 3.876-7.158 10.895-15.529 32.301-8.579 19.335 6.277 43.843 10.103 51.164 9.792 10.641-0.452 38.065-14.434 44.253-15.895 4.828-1.14 12.659 1.038 23.371 9.477 10.713 8.439 42.643 2.141 63.798 9.386 21.155 7.244 62.153 32.31 80.187 37.05 18.034 4.739 13.304 27.02-2.092 42.28-15.396 15.259-38.022 18.326-28.527 63.998 3.195 15.367 25.189 23.484 27.406 46.467 1.811 18.774 18.741 49.59 25.61 62.579 10.2 19.288 37.708 37.723 46.291 44.787 11.332 9.328 35.827 33.635 62.636 50.671 18.534 11.779 30.532 15.445 62.73 16.564 41.058 1.426 83.392-27.819 139.11-28.345"
           stroke="#000"
           stroke-width=".5"
           fill="#fff"
           style="fill:none;stroke:#000000;stroke-opacity:0.3137255" /></g><g
         id="g3430"
         transform="translate(-42.138 818.25)"
         style="fill:none"><path
           id="path3432"
           d="m0 0c30.005-22.514 86.178-34.163 98.663-38.325 12.484-4.161 23.581 3.699 37.452-15.72 13.872-19.419 67.046-10.172 79.53-12.021s53.913-15.973 78.605 0.925c26.903 18.411 47.683 20.615 57.208 35.41 9.525 14.796 17.383 54.758 12.161 79.33-2.71 12.75 18.383 29.605 21.612 42.106 1.133 4.386-0.93 28.767 14.973 49.691 9.938 13.076 27.787 32.102 33.344 43.675 8.119 16.905 17.609 32.109 30.963 44.796 10.462 9.938 36.853 27.522 54.361 37.735 15.035 8.77 43.886 26.523 60.151 34.111 33.158 15.467 61.646 32.664 186.81-0.846"
           stroke="#000"
           stroke-width=".5"
           fill="#fff"
           style="fill:none;stroke:#000000;stroke-opacity:0.3137255" /></g><g
         id="g3434"
         transform="translate(-42.138 913.74)"
         style="fill:none"><path
           id="path3436"
           d="m0 0c11.171-7.288 59.559-21.648 68.974-45.907 4.562-11.756 53.841-26.101 53.478-43.535-0.363-17.433 3.287-29.782 18.164-32.688 14.878-2.905 23.25-2.01 30.516 1.453s15.145 9.879 24.704 2.76c9.558-7.118 6.902-11.937 27.973-1.356 21.07 10.582 24.824 20.025 26.52 25.836 1.695 5.811 1.453 15.255 24.703 14.165s26.883 2.179 35.602 10.533 7.992 20.702 9.809 32.325c1.816 11.622-1.839 31.115 5.449 35.787 3.366 2.158 20.36-5.212 23.866-3.167 6.276 3.662 2.869 15.911 4.315 19.092 1.446 3.18 6.146 16.476 13.73 21.445 4.198 2.75 11.515 5.32 12.197 26.763 0.589 18.481 17.539 26.625 20.811 36.303 2.989 8.842 4.408 35.322 6.061 42.199 3.236 13.469 9.655 25.238 20.465 37.442 8.083 9.127 30.976 24.802 42.854 36.919 32.738 33.399 94.884 95.371 293.86 22.143"
           stroke="#000"
           stroke-width=".5"
           fill="#fff"
           style="fill:none;stroke:#000000;stroke-opacity:0.3137255" /></g></g></g></svg>